<mxfile host="65bd71144e" scale="2" border="1">
    <diagram id="Nb3IuK_mG-Y6akaeBI54" name="第 1 页">
        <mxGraphModel dx="912" dy="618" grid="1" gridSize="10" guides="1" tooltips="1" connect="1" arrows="1" fold="1" page="1" pageScale="1" pageWidth="827" pageHeight="1169" background="#ffffff" math="0" shadow="1">
            <root>
                <mxCell id="0"/>
                <mxCell id="1" parent="0"/>
                <mxCell id="16" value="" style="rounded=0;whiteSpace=wrap;html=1;fillColor=default;" parent="1" vertex="1">
                    <mxGeometry x="55" y="200" width="370" height="370" as="geometry"/>
                </mxCell>
                <mxCell id="2" value="" style="rounded=0;whiteSpace=wrap;html=1;" parent="1" vertex="1">
                    <mxGeometry x="80" y="240" width="320" height="120" as="geometry"/>
                </mxCell>
                <mxCell id="3" value="Mebius Agent" style="rounded=1;whiteSpace=wrap;html=1;" parent="1" vertex="1">
                    <mxGeometry x="140" y="250" width="250" height="90" as="geometry"/>
                </mxCell>
                <mxCell id="4" value="Node 1" style="text;html=1;align=center;verticalAlign=middle;resizable=0;points=[];autosize=1;strokeColor=none;fillColor=none;" parent="1" vertex="1">
                    <mxGeometry x="80" y="250" width="50" height="20" as="geometry"/>
                </mxCell>
                <mxCell id="5" value="OS Config" style="rounded=1;whiteSpace=wrap;html=1;" parent="1" vertex="1">
                    <mxGeometry x="170" y="320" width="60" height="20" as="geometry"/>
                </mxCell>
                <mxCell id="8" value="Component" style="rounded=1;whiteSpace=wrap;html=1;" parent="1" vertex="1">
                    <mxGeometry x="235" y="320" width="60" height="20" as="geometry"/>
                </mxCell>
                <mxCell id="9" value="Services" style="rounded=1;whiteSpace=wrap;html=1;" parent="1" vertex="1">
                    <mxGeometry x="300" y="320" width="60" height="20" as="geometry"/>
                </mxCell>
                <mxCell id="10" value="" style="rounded=0;whiteSpace=wrap;html=1;" parent="1" vertex="1">
                    <mxGeometry x="80" y="420" width="320" height="120" as="geometry"/>
                </mxCell>
                <mxCell id="11" value="Mebius Agent" style="rounded=1;whiteSpace=wrap;html=1;" parent="1" vertex="1">
                    <mxGeometry x="140" y="430" width="250" height="90" as="geometry"/>
                </mxCell>
                <mxCell id="12" value="Node N" style="text;html=1;align=center;verticalAlign=middle;resizable=0;points=[];autosize=1;strokeColor=none;fillColor=none;" parent="1" vertex="1">
                    <mxGeometry x="75" y="430" width="60" height="20" as="geometry"/>
                </mxCell>
                <mxCell id="13" value="OS Config" style="rounded=1;whiteSpace=wrap;html=1;" parent="1" vertex="1">
                    <mxGeometry x="170" y="500" width="60" height="20" as="geometry"/>
                </mxCell>
                <mxCell id="14" value="Component" style="rounded=1;whiteSpace=wrap;html=1;" parent="1" vertex="1">
                    <mxGeometry x="235" y="500" width="60" height="20" as="geometry"/>
                </mxCell>
                <mxCell id="15" value="Services" style="rounded=1;whiteSpace=wrap;html=1;" parent="1" vertex="1">
                    <mxGeometry x="300" y="500" width="60" height="20" as="geometry"/>
                </mxCell>
                <mxCell id="17" value="Kubernetes Cluster A" style="text;html=1;align=center;verticalAlign=middle;resizable=0;points=[];autosize=1;strokeColor=none;fillColor=none;" parent="1" vertex="1">
                    <mxGeometry x="70" y="210" width="130" height="20" as="geometry"/>
                </mxCell>
                <mxCell id="18" value="" style="rounded=0;whiteSpace=wrap;html=1;fillColor=default;" parent="1" vertex="1">
                    <mxGeometry x="457" y="200" width="370" height="370" as="geometry"/>
                </mxCell>
                <mxCell id="19" value="" style="rounded=0;whiteSpace=wrap;html=1;" parent="1" vertex="1">
                    <mxGeometry x="482" y="240" width="320" height="120" as="geometry"/>
                </mxCell>
                <mxCell id="20" value="Mebius Agent" style="rounded=1;whiteSpace=wrap;html=1;" parent="1" vertex="1">
                    <mxGeometry x="542" y="250" width="250" height="90" as="geometry"/>
                </mxCell>
                <mxCell id="21" value="Node 1" style="text;html=1;align=center;verticalAlign=middle;resizable=0;points=[];autosize=1;strokeColor=none;fillColor=none;" parent="1" vertex="1">
                    <mxGeometry x="482" y="250" width="50" height="20" as="geometry"/>
                </mxCell>
                <mxCell id="22" value="OS Config" style="rounded=1;whiteSpace=wrap;html=1;" parent="1" vertex="1">
                    <mxGeometry x="572" y="320" width="60" height="20" as="geometry"/>
                </mxCell>
                <mxCell id="23" value="Component" style="rounded=1;whiteSpace=wrap;html=1;" parent="1" vertex="1">
                    <mxGeometry x="637" y="320" width="60" height="20" as="geometry"/>
                </mxCell>
                <mxCell id="24" value="Services" style="rounded=1;whiteSpace=wrap;html=1;" parent="1" vertex="1">
                    <mxGeometry x="702" y="320" width="60" height="20" as="geometry"/>
                </mxCell>
                <mxCell id="25" value="" style="rounded=0;whiteSpace=wrap;html=1;" parent="1" vertex="1">
                    <mxGeometry x="482" y="420" width="320" height="120" as="geometry"/>
                </mxCell>
                <mxCell id="26" value="Mebius Agent" style="rounded=1;whiteSpace=wrap;html=1;" parent="1" vertex="1">
                    <mxGeometry x="542" y="430" width="250" height="90" as="geometry"/>
                </mxCell>
                <mxCell id="27" value="Node N" style="text;html=1;align=center;verticalAlign=middle;resizable=0;points=[];autosize=1;strokeColor=none;fillColor=none;" parent="1" vertex="1">
                    <mxGeometry x="477" y="430" width="60" height="20" as="geometry"/>
                </mxCell>
                <mxCell id="28" value="OS Config" style="rounded=1;whiteSpace=wrap;html=1;" parent="1" vertex="1">
                    <mxGeometry x="572" y="500" width="60" height="20" as="geometry"/>
                </mxCell>
                <mxCell id="29" value="Component" style="rounded=1;whiteSpace=wrap;html=1;" parent="1" vertex="1">
                    <mxGeometry x="637" y="500" width="60" height="20" as="geometry"/>
                </mxCell>
                <mxCell id="30" value="Services" style="rounded=1;whiteSpace=wrap;html=1;" parent="1" vertex="1">
                    <mxGeometry x="702" y="500" width="60" height="20" as="geometry"/>
                </mxCell>
                <mxCell id="31" value="Kubernetes Cluster X" style="text;html=1;align=center;verticalAlign=middle;resizable=0;points=[];autosize=1;strokeColor=none;fillColor=none;" parent="1" vertex="1">
                    <mxGeometry x="472" y="210" width="130" height="20" as="geometry"/>
                </mxCell>
                <mxCell id="32" value="" style="rounded=0;whiteSpace=wrap;html=1;fillColor=default;" parent="1" vertex="1">
                    <mxGeometry x="55" y="110" width="775" height="60" as="geometry"/>
                </mxCell>
                <mxCell id="33" value="" style="rounded=1;whiteSpace=wrap;html=1;fillColor=default;" parent="1" vertex="1">
                    <mxGeometry x="120" y="125" width="290" height="30" as="geometry"/>
                </mxCell>
                <mxCell id="34" value="" style="rounded=1;whiteSpace=wrap;html=1;fillColor=default;" parent="1" vertex="1">
                    <mxGeometry x="472" y="125" width="290" height="30" as="geometry"/>
                </mxCell>
                <mxCell id="35" value="Mebius &lt;br&gt;Gateway" style="text;html=1;align=center;verticalAlign=middle;resizable=0;points=[];autosize=1;strokeColor=none;fillColor=none;" parent="1" vertex="1">
                    <mxGeometry x="55" y="120" width="60" height="30" as="geometry"/>
                </mxCell>
                <mxCell id="36" value="Cluster A" style="text;html=1;align=center;verticalAlign=middle;resizable=0;points=[];autosize=1;strokeColor=none;fillColor=none;" parent="1" vertex="1">
                    <mxGeometry x="220" y="130" width="60" height="20" as="geometry"/>
                </mxCell>
                <mxCell id="37" value="Cluster X" style="text;html=1;align=center;verticalAlign=middle;resizable=0;points=[];autosize=1;strokeColor=none;fillColor=none;" parent="1" vertex="1">
                    <mxGeometry x="590" y="130" width="60" height="20" as="geometry"/>
                </mxCell>
                <mxCell id="38" value="" style="endArrow=classic;html=1;entryX=0.5;entryY=1;entryDx=0;entryDy=0;exitX=0.5;exitY=0.333;exitDx=0;exitDy=0;exitPerimeter=0;" parent="1" source="3" target="33" edge="1">
                    <mxGeometry width="50" height="50" relative="1" as="geometry">
                        <mxPoint x="240" y="280" as="sourcePoint"/>
                        <mxPoint x="290" y="230" as="targetPoint"/>
                    </mxGeometry>
                </mxCell>
                <mxCell id="40" value="" style="endArrow=classic;html=1;entryX=0.5;entryY=1;entryDx=0;entryDy=0;exitX=0.5;exitY=0.333;exitDx=0;exitDy=0;exitPerimeter=0;" parent="1" edge="1">
                    <mxGeometry width="50" height="50" relative="1" as="geometry">
                        <mxPoint x="637" y="279.97" as="sourcePoint"/>
                        <mxPoint x="637" y="155" as="targetPoint"/>
                    </mxGeometry>
                </mxCell>
                <mxCell id="41" value="" style="rounded=0;whiteSpace=wrap;html=1;fillColor=default;" parent="1" vertex="1">
                    <mxGeometry x="55" y="20" width="775" height="60" as="geometry"/>
                </mxCell>
                <mxCell id="42" value="Mebius&lt;br&gt;Backend" style="text;html=1;align=center;verticalAlign=middle;resizable=0;points=[];autosize=1;strokeColor=none;fillColor=none;" parent="1" vertex="1">
                    <mxGeometry x="60" y="30" width="60" height="30" as="geometry"/>
                </mxCell>
                <mxCell id="43" value="Machine" style="rounded=1;whiteSpace=wrap;html=1;fillColor=default;" parent="1" vertex="1">
                    <mxGeometry x="160" y="35" width="80" height="25" as="geometry"/>
                </mxCell>
                <mxCell id="44" value="Cluster" style="rounded=1;whiteSpace=wrap;html=1;fillColor=default;" parent="1" vertex="1">
                    <mxGeometry x="265" y="35" width="80" height="25" as="geometry"/>
                </mxCell>
                <mxCell id="45" value="Upgrade" style="rounded=1;whiteSpace=wrap;html=1;fillColor=default;" parent="1" vertex="1">
                    <mxGeometry x="370" y="35" width="80" height="25" as="geometry"/>
                </mxCell>
                <mxCell id="46" value="Policy" style="rounded=1;whiteSpace=wrap;html=1;fillColor=default;" parent="1" vertex="1">
                    <mxGeometry x="480" y="35" width="80" height="25" as="geometry"/>
                </mxCell>
                <mxCell id="47" value="Security" style="rounded=1;whiteSpace=wrap;html=1;fillColor=default;" parent="1" vertex="1">
                    <mxGeometry x="592" y="35" width="80" height="25" as="geometry"/>
                </mxCell>
                <mxCell id="48" value="Event" style="rounded=1;whiteSpace=wrap;html=1;fillColor=default;" parent="1" vertex="1">
                    <mxGeometry x="700" y="35" width="80" height="25" as="geometry"/>
                </mxCell>
                <mxCell id="49" value="&lt;font style=&quot;font-size: 7px&quot;&gt;On &lt;br&gt;Kubernetes&lt;/font&gt;" style="text;html=1;align=center;verticalAlign=middle;resizable=0;points=[];autosize=1;strokeColor=none;fillColor=none;" parent="1" vertex="1">
                    <mxGeometry x="65" y="47" width="50" height="40" as="geometry"/>
                </mxCell>
                <mxCell id="50" value="" style="shape=flexArrow;endArrow=classic;html=1;fontSize=7;entryX=0.5;entryY=1;entryDx=0;entryDy=0;exitX=0.5;exitY=0;exitDx=0;exitDy=0;endWidth=17;endSize=4.71;" parent="1" source="32" target="41" edge="1">
                    <mxGeometry width="50" height="50" relative="1" as="geometry">
                        <mxPoint x="430" y="130" as="sourcePoint"/>
                        <mxPoint x="480" y="80" as="targetPoint"/>
                    </mxGeometry>
                </mxCell>
            </root>
        </mxGraphModel>
    </diagram>
</mxfile>